<svg width="48" height="48" viewBox="0 0 1024 1024" version="1.1" xmlns="http://www.w3.org/2000/svg"><title>telegram</title><g id="telegram" stroke="none" stroke-width="1" fill="none" fill-rule="evenodd"><rect id="bg" fill="#2DA5E0" fill-rule="nonzero" x="0" y="0" width="1024" height="1024" rx="170.669998"></rect><g id="icon" transform="translate(256.000000, 256.000000)"><circle id="Oval" stroke="#FFFFFF" stroke-width="20" cx="256" cy="256" r="246"></circle><path d="M118.902853,246.318985 C196.65432,212.452319 248.48792,190.124852 274.403653,179.336585 C348.48792,148.533385 363.862853,143.182985 373.904453,143 C376.112453,142.965385 381.029787,143.511519 384.236187,146.105652 C386.902853,148.292319 387.653787,151.251252 388.029253,153.329119 C388.362053,155.402719 388.82072,160.132319 388.445253,163.825119 C384.445253,205.990452 367.071387,308.315785 358.237253,355.545652 C354.52952,375.528585 347.154587,382.227252 340.029253,382.882185 C324.528453,384.307252 312.778053,372.648585 297.778587,362.820319 C274.320453,347.432585 261.07032,337.858185 238.277787,322.845919 C211.946053,305.495519 229.029787,295.957385 244.029253,280.373385 C247.946053,276.294452 316.195653,214.231519 317.48632,208.603785 C317.65272,207.899785 317.821253,205.273652 316.236187,203.891252 C314.69592,202.502452 312.40472,202.978185 310.736453,203.353652 C308.362053,203.886985 270.902853,228.669919 198.237253,277.698185 C187.61112,285.006985 177.987653,288.569652 169.31992,288.381919 C159.820187,288.179252 141.48632,282.999519 127.862853,278.574985 C111.19512,273.145652 97.9044535,270.274185 99.0713868,261.053919 C99.6537868,256.253919 106.277787,251.340852 118.902853,246.318985 Z" id="Path" fill="#FFFFFF" fill-rule="nonzero"></path></g></g></svg>