<svg width="48" height="48" viewBox="0 0 1024 1024" version="1.1" xmlns="http://www.w3.org/2000/svg"><title>webchat</title><g id="webchat" stroke="none" stroke-width="1" fill="none" fill-rule="evenodd"><rect id="bg" fill="#2DABA8" fill-rule="nonzero" x="0" y="0" width="1024" height="1024" rx="170.669998"></rect><g id="icon" transform="translate(299.208533, 268.844800)" fill="#FFFFFF" fill-rule="nonzero"><path d="M66.6666667,355.552 L66.6666667,439.240533 L100.3328,419.04 L206.154667,355.552 L311.1104,355.552 C335.6224,355.552 355.556267,335.618133 355.556267,311.106133 L355.556267,133.329067 C355.556267,108.817067 335.6224,88.8853333 311.1104,88.8853333 L44.4437333,88.8853333 C19.9338667,88.8853333 -1.13686838e-13,108.817067 -1.13686838e-13,133.329067 L-1.13686838e-13,311.106133 C-1.13686838e-13,335.618133 19.9338667,355.552 44.4437333,355.552 L66.6666667,355.552 Z M44.4437333,133.329067 L311.1104,133.329067 L311.1104,311.106133 L193.8432,311.106133 L111.1104,360.750933 L111.1104,311.106133 L44.4437333,311.106133 L44.4437333,133.329067 Z" id="Shape"></path><path d="M399.985067,2.27373675e-13 L133.3184,2.27373675e-13 C108.808533,2.27373675e-13 88.8746667,19.9317333 88.8746667,44.4437333 L355.541333,44.4437333 C380.053333,44.4437333 399.985067,64.3776 399.985067,88.8874667 L399.985067,266.666667 C424.497067,266.666667 444.430933,246.7328 444.430933,222.2208 L444.430933,44.4437333 C444.430933,19.9317333 424.497067,2.27373675e-13 399.985067,2.27373675e-13 Z" id="Path"></path></g></g></svg>