<svg width="48" height="48" viewBox="0 0 1024 1024" version="1.1" xmlns="http://www.w3.org/2000/svg"><title>whatsapp</title><g id="whatsapp" stroke="none" stroke-width="1" fill="none" fill-rule="evenodd"><rect id="bg" fill="#24C52F" fill-rule="nonzero" x="0" y="0" width="1024" height="1024" rx="170.666"></rect><g id="icon" transform="translate(239.707733, 239.697067)" fill-rule="nonzero"><path d="M11.6074667,269.0368 C11.5946667,314.794667 23.6458667,359.470933 46.5557333,398.852267 L9.41653333,533.399467 L148.187733,497.297067 C186.568533,518.0288 229.572267,528.891733 273.2736,528.896 L273.3888,528.896 C417.653333,528.896 535.086933,412.413867 535.148821,269.2416 C535.176533,199.8656 507.972267,134.628267 458.5472,85.5466667 C409.128533,36.4693333 343.4048,9.42933333 273.378133,9.39733333 C129.096533,9.39733333 11.6693333,125.873067 11.6096,269.0368" id="Path" fill="#24C52F"></path><path d="M2.27626667,268.9536 C2.26133333,316.3584 14.7434667,362.632533 38.4704,403.424 L0,542.794667 L143.746133,505.397333 C183.351467,526.824533 227.944533,538.122667 273.320533,538.1376 L273.437867,538.1376 C422.877867,538.1376 544.5312,417.4656 544.595217,269.169067 C544.6208,197.301333 516.437333,129.717333 465.245867,78.8778667 C414.048,28.0448 345.973333,0.0298666667 273.437867,0 C123.972267,0 2.336,120.657067 2.27626667,268.9536 Z M87.8826667,396.398933 L82.5152,387.944533 C59.9530667,352.347733 48.0448,311.210667 48.0618483,268.970667 C48.1088,145.7088 149.207467,45.4250667 273.5232,45.4250667 C333.725867,45.4506667 390.304,68.7381333 432.859733,110.9888 C475.413333,153.243733 498.8288,209.412267 498.813874,269.154133 C498.7584,392.416 397.6576,492.7104 273.437867,492.7104 L273.348267,492.7104 C232.9024,492.6912 193.233067,481.911467 158.638933,461.544533 L150.4064,456.699733 L65.1050667,478.890667 L87.8826667,396.398933 Z" fill="white"></path><path d="M205.6768,156.512 C200.6016,145.3184 195.259733,145.092267 190.434133,144.896 C186.481067,144.727467 181.962667,144.740044 177.448533,144.740044 C172.930133,144.740044 165.5872,146.427733 159.383467,153.149867 C153.1712,159.880533 135.6672,176.1408 135.6672,209.216 C135.6672,242.2912 159.946667,274.257067 163.330133,278.747733 C166.72,283.227733 210.2016,353.2736 279.067733,380.221867 C336.3008,402.615467 347.9488,398.161067 360.369067,397.038933 C372.7936,395.918933 400.456533,380.7808 406.101333,365.0816 C411.748267,349.386667 411.748267,335.931733 410.056533,333.12 C408.362667,330.318933 403.844267,328.635733 397.0688,325.275733 C390.293333,321.915733 356.981333,305.649067 350.7712,303.4048 C344.558933,301.1648 340.042667,300.0448 335.524267,306.7776 C331.005867,313.4976 318.033067,328.635733 314.077867,333.12 C310.126933,337.6128 306.171733,338.173867 299.3984,334.8096 C292.618667,331.4368 270.798933,324.347733 244.910933,301.4464 C224.770133,283.626667 211.172267,261.621333 207.2192,254.890667 C203.268267,248.168533 206.7968,244.526933 210.193067,241.175467 C213.237333,238.1632 216.970667,233.326933 220.362667,229.4016 C223.739733,225.476267 224.868267,222.6752 227.127467,218.190933 C229.3888,213.704533 228.256,209.777067 226.5664,206.414933 C224.868267,203.0528 211.701333,169.8048 205.6768,156.512 Z" id="Path" fill="#FFFFFF"></path></g></g></svg>