<svg viewBox="0 0 68 24" xmlns="http://www.w3.org/2000/svg" height="24" role="img" aria-labelledby="icon-LumiLogo-title" data-testid="icon-LumiLogo"><title>LumiLogo</title><g id="icon-LumiLogo-Group" stroke="none" stroke-width="1" fill="currentColor" fill-rule="evenodd"></g><path d="M0 1.33594H4.5465V19.3872H13.9715V23.6329H0V1.33594Z" fill="#203C76"></path><path d="M31.0632 7.55469V23.6334H27.085V21.1258C26.048 23.0651 24.1751 24.0006 22.0366 24.0006C18.2928 24.0006 16.1211 21.4266 16.1211 17.0148V7.55469H20.3668V16.1126C20.3668 18.7198 21.4019 19.9892 23.474 19.9892C25.5481 19.9892 26.8175 18.6202 26.8175 16.2122V7.55469H31.0632Z" fill="#203C76"></path><path d="M58.6641 13.9389V23.6334H54.4203V14.8412C54.4203 12.3687 53.5824 11.2321 51.8111 11.2321C49.9734 11.2321 48.9031 12.4019 48.9031 14.474V23.6334H44.6574V14.8412C44.6574 12.3687 43.7551 11.2321 41.9838 11.2321C40.2125 11.2321 39.1422 12.4019 39.1422 14.474V23.6334H34.8984V7.55466H38.8747V9.69316C39.8121 7.98626 41.517 7.21875 43.4563 7.21875C45.5616 7.21875 47.1338 8.12102 48.036 9.79276C49.0379 8.02142 50.9108 7.21875 52.9829 7.21875C56.5588 7.2207 58.6641 9.69511 58.6641 13.9389Z" fill="#203C76"></path><path d="M61.8906 2.47441C61.8906 1.00187 62.9608 0 64.4646 0C66.0368 0 67.0718 1.00187 67.0718 2.47441C67.0718 3.91179 66.0368 4.91366 64.4646 4.91366C62.9608 4.91366 61.8906 3.90983 61.8906 2.47441ZM66.6051 7.55406V23.6328H62.3613V7.55406H66.6051Z" fill="#203C76"></path></svg>